<svg width="25" height="26" viewBox="0 0 25 26" fill="none" xmlns="http://www.w3.org/2000/svg">
<path fill-rule="evenodd" clip-rule="evenodd" d="M4.6875 22.75C4.6875 22.75 3.125 22.75 3.125 21.125C3.125 19.5 4.6875 14.625 12.5 14.625C20.3125 14.625 21.875 19.5 21.875 21.125C21.875 22.75 20.3125 22.75 20.3125 22.75H4.6875ZM12.5 13C13.7432 13 14.9355 12.4864 15.8146 11.5721C16.6936 10.6579 17.1875 9.41793 17.1875 8.125C17.1875 6.83207 16.6936 5.59209 15.8146 4.67785C14.9355 3.76361 13.7432 3.25 12.5 3.25C11.2568 3.25 10.0645 3.76361 9.18544 4.67785C8.30636 5.59209 7.8125 6.83207 7.8125 8.125C7.8125 9.41793 8.30636 10.6579 9.18544 11.5721C10.0645 12.4864 11.2568 13 12.5 13Z" fill="black"/>
</svg>
